<svg xmlns="http://www.w3.org/2000/svg" viewBox="0 0 500 310">
  <path fill="#00569d" d="m308.5 104.8 140.7-81V0L308.5 81.1V105z"/>
  <path fill="#00965f" d="m308.5 138 140.7-81.1V33.1l-140.7 81.2V138z"/>
  <path fill="#fab900" d="m308.5 171.1 140.7-81V66.2l-140.7 81.1v23.8z"/>
  <path fill="#e20613" d="m308.5 204.1 140.7-81V99.4l-140.7 81.2v23.7z"/>
  <path fill="#ffffff" d="M277.8 165v45h26.4v20.2h-26.4v41c-.5 16.3 5.2 17.5 9.6 17.9h1.6c4.1.1 12.2-2.3 12.2-2.3v20.7s-11.5 2-19.3 2h-.3c-6-.3-30.3.8-30-27.2v-52.2h-30.5v44.6l.1 2v.5c.5 6 2.3 11.8 11.2 12 3.1 0 12.2-2.4 12.2-2.4v20.7s-6.2 1-12.8 1.5h-.7l-.7.2h-1.4c-2.1.2-4.2.3-6 .2h-.3c-8.9-.5-27.5.2-27.7-27v-52.3h-17.5V210h17.5v-30l26-15v45h30.7v-30zm-136.6 42.7c40 .6 36.4 41.5 36.4 47.9H125c.3 4 2.2 20.3 16 29.4l.4.3c13.2 9.1 32.8-.2 34-.8V305s-13.3 5-27.1 4.5h-.5c-8.6 0-47.1-1.3-47.4-54.2v-1.6c0-13 2.2-44.1 39.6-46zm-1.6 19.2c-9.3 0-12.3 7-13.3 9.8v.2l-.3.7h26.4a12 12 0 0 0-12.4-10.7zm-71.4 80.7V256h-41v51.6H1.2v-25H27V180l26-15v97.6H68V210h26v97.6zm88.5-52.2v52.2h-26V210h26z"/>
</svg>
