<svg xmlns="http://www.w3.org/2000/svg" xmlns:xlink="http://www.w3.org/1999/xlink" viewBox="0 0 121 25">
  <path fill="#ffffff" d="M0 0h4.31l.021 19.493H14.6v3.745H0V0zm26.4 18.329l-.043.063c-.96 1.164-2.262 1.799-3.65 1.799-1.43 0-2.475-.847-2.475-2.01 0-1.757 1.985-2.392 3.692-2.392a4.82 4.82 0 0 1 2.37.55l.106.064v1.926zm-3.244-11.81c-2.604 0-4.887.847-6.125 1.608l1.302 3.09c1.152-.656 2.902-1.29 4.396-1.29 2.326 0 3.67 1.163 3.67 3.174v.339l-.298-.149a7.874 7.874 0 0 0-3.265-.698c-4.418 0-6.744 2.815-6.744 5.609 0 3.026 2.582 5.396 5.89 5.396 2.134 0 3.714-.995 4.205-1.608l.362-.466v1.736h3.949v-9.143c0-2.646-.577-3.894-1.494-5.037-1.302-1.651-3.394-2.561-5.848-2.561zm15.737.376h-4.502l-5.145 8.423-5.336-8.423H19.9l7.534 11.19-7.747 11.084h4.525l5.377-8.02 5.4 8.02h4.525L31.765 17.07l7.128-10.175zM62.02 6.879v16.36h-4.12V6.879h4.12zm.439-4.572c-.043-1.27-1.11-2.264-2.391-2.244h-.063A2.358 2.358 0 0 0 57.679 2.413a2.347 2.347 0 0 0 2.432 2.307c1.324-.02 2.368-1.1 2.327-2.413zm6.49 4.572h3.949v1.567l.341-.276c1.302-1.079 2.945-1.65 4.653-1.65 2.198.042 4.29.994 5.698 2.666 1.195 1.397 1.707 3.111 1.707 5.757v8.338h-4.14v-8.677c0-1.566-.32-2.54-1.067-3.301-.64-.635-1.601-.995-2.69-.995a5.616 5.616 0 0 0-4.289 2.138l-.043.042v10.751h-4.119V6.879zm20.234 10.449c.256 2.456 2.219 4.17 4.78 4.17 2.156 0 3.671-1.27 4.247-1.884l2.306 2.286c-1.538 1.736-4.077 2.794-6.66 2.794-5.1 0-8.664-3.492-8.664-8.508 0-4.868 3.457-8.55 8.024-8.55 4.375 0 7.79 3.682 7.79 8.38 0 .36-.021.72-.064 1.08H88.92l-.022.232zm4.567-7.492a3.602 3.602 0 0 0-3.564 3.131l-.021.233h7.17l-.021-.233a3.602 3.602 0 0 0-3.564-3.131zm14.15-3.104h1.302v16.359h-1.302V6.732zm.64-1.146c.78 0 1.41-.63 1.41-1.41 0-.778-.63-1.41-1.41-1.41-.78 0-1.41.632-1.41 1.41 0 .78.63 1.41 1.41 1.41zM120.009 23.238h-4.865l-4.098-5.82-4.098 5.82h-4.866l6.339-8.761-5.55-7.62h4.696l3.458 4.932 3.457-4.931h4.695l-5.549 7.619 6.381 8.761z"/>
</svg>
