<svg xmlns="http://www.w3.org/2000/svg" viewBox="0 0 525.13 109.78">
  <path fill="#ffffff" d="M273.57 25.47l-.14.28-25.99 52.81-28.93-52.83-.14-.26h-12.69l.42.74 32.12 57.57 1.14 2.04 1.13 2.02.14.26 1.1 1.97c-.05.11-.1.22-.16.32-4.5 9.11-8.29 10.03-22.55 10.03h-.5v9.34l.51-.01c20.81-.24 25.61-2.54 32.09-15.39L285.4 26.2l.37-.72h-12.2zM327.69 78.79h-3.21c-11.06 0-14.61-3.46-14.61-14.26V34.81h28.8v-9.33h-28.8v-14.4h-11.23v14.4h-7.43l-4.69 9.33h12.12v33.65c0 13.04 8.14 19.66 24.18 19.66h5.59c10.41 0 16.88-2.07 20.36-6.53 2.31-2.96 3.09-6.75 3.35-10.88h-9.63c-1.11 6.71-4.71 8.08-14.8 8.08zm-140.88 8.37h11.23V0h-11.23v87.16zM50.01 24.51h-19.4c-1.08 0-2.12.05-3.14.14C8.99 24.99-.01 33.52-.01 50.72l.03-.01c-.03.27-.03.71-.03 1.54v2.04l.01.04V105.18c0 2.87 0 2.87.15 3.02l.15.15h10.94V80.5c2.59 5.37 7.85 7.61 17.59 7.61h19.52c11.06 0 18.4-1.88 23.1-5.91 4.88-4.18 7.15-10.82 7.15-20.89V50.6c-.01-17.56-9.36-26.09-28.59-26.09zm17.34 38.11c0 13.58-6.52 16.16-18.54 16.16h-18.2c-10.06 0-19.37-1.99-19.37-16.4V50.84c0-11.28 6.08-16.99 18.06-16.99h20.35c14.81 0 17.71 6.19 17.71 16.87v11.9zm96.34-33.21c-5.44-3.34-13.17-4.89-24.31-4.89h-14.64c-11.15 0-18.87 1.55-24.31 4.89-6.56 4.02-9.74 10.64-9.74 20.24v13.33c0 9.6 3.19 16.22 9.74 20.24 5.44 3.34 13.17 4.89 24.31 4.89h14.64c11.15 0 18.87-1.56 24.31-4.89 6.56-4.02 9.74-10.64 9.74-20.24V49.64c0-9.59-3.19-16.21-9.74-20.23zm-1.49 32.97c0 13.61-7.89 16.4-19.73 16.4h-20.83c-11.84 0-19.73-2.79-19.73-16.4V50.24c0-13.61 7.89-16.4 19.73-16.4h20.83c11.84 0 19.73 2.79 19.73 16.4v12.14z"/>
</svg>
